<svg xmlns="http://www.w3.org/2000/svg" viewBox="0 0 217.16 111.75" xml:space="preserve"><path opacity=".25" fill="#b3b7dd" d="M0 5.31h211.32v106.44H0z"/><path fill="#fff" d="M5.84 0h211.32v106.44H5.84z"/><g fill="none" stroke-linecap="round" stroke-linejoin="round" stroke-miterlimit="10"><circle cx="20.66" cy="13.12" r="2.76" stroke="#2c2454"/><path d="M13.38 4.94s3.73.14 3.84 4.96M30 7.42s-3.42-.53-5.36 3.52M17.22 16.67s-3.31.89-4.42 4.52M23.42 17.03s3.37.89 4.58 4.15" stroke="#c4c4e4"/></g><g fill="none" stroke-linecap="round" stroke-linejoin="round" stroke-miterlimit="10"><path d="M201.58 14.24c0-1.53 1.24-2.76 2.76-2.76 1.53 0 2.76 1.24 2.76 2.76S205.87 17 204.34 17c-1.52 0-2.76-1.24-2.76-2.76z" stroke="#2c2454"/><path d="M197.18 3.32s4.14 1.83 4.4 6.77M207.11 17.4s5.03 1.05 6.15 5.53M196.75 21.41s.22-3.53 3.93-4.74" stroke="#c4c4e4"/></g><g fill="none" stroke-linecap="round" stroke-linejoin="round" stroke-miterlimit="10"><circle cx="17.19" cy="94.45" r="2.76" stroke="#2c2454"/><path d="M18.05 98.84s-.2 3.87 3.72 5.69M9.83 85.37s3.08 1.18 4.6 4.76M27.44 90.13s-4.54-.79-6.31 2.61" stroke="#c4c4e4"/></g><g fill="none" stroke-linecap="round" stroke-linejoin="round" stroke-miterlimit="10"><circle cx="206.76" cy="91.74" r="2.76" stroke="#2c2454"/><path d="M202.74 88.32s-.91-3.93-6.03-4.77M213.96 83.22s-2.65.63-4 5.43M206.76 96.17s.74 5.26-4.02 6.1" stroke="#c4c4e4"/></g></svg>
