<?xml version="1.0" encoding="utf-8"?>
<!-- Generator: Adobe Illustrator 25.3.0, SVG Export Plug-In . SVG Version: 6.00 Build 0)  -->
<svg version="1.1" id="Layer_1" xmlns="http://www.w3.org/2000/svg" xmlns:xlink="http://www.w3.org/1999/xlink" x="0px" y="0px"
	 viewBox="0 0 1532.38 858.17" style="enable-background:new 0 0 1532.38 858.17;" xml:space="preserve">
<g>
	<g id="XMLID_2_">
		<rect id="BACK_PAGE_1_" style="fill:#FFFFFF;" width="1532.34" height="857.69"/>
		<g>
			<path style="fill:#C4C4E4;" d="M808.99,857.56c-63.59-120.29-26.17-325.11,184.05-347.81
				c243.96-26.34,191.77-215.12,496.02-216.97c15.14-0.09,29.55,0.57,43.27,1.96v562.95L808.99,857.56z"/>
			<g>
				<g>
					<g>
						<path style="fill:#68BC95;" d="M1528.46,613.77c-52.84-27.23-65.13,33.88-149.31,62.46
							c-84.18,28.58-135.79,67.27-141.69,143.46l5.29,37.03h147.46c67.33-35.27,118.66-97.58,142.13-150.81v-88.36L1528.46,613.77z"
							/>
						<path style="fill:#4AB382;" d="M1479.11,663.28l-8.97-3.82c0,0,16.42-23.1,19.91-49.39c-16.83,5.79-32.07,21.67-54.87,37.84
							l-43.71,121.82c0,0-100.6-6.65-134.41-12.88c-11.26,17.86-18.11,38.75-20.04,63.67l5.29,37.03h29.87l-9-62.57
							c0,0,19.44,50.71,92.35,38.62C1428.44,821.52,1467.03,725.28,1479.11,663.28z"/>
						<g>
							<path style="fill:none;stroke:#2C2454;stroke-linecap:round;stroke-linejoin:round;stroke-miterlimit:10;" d="
								M1290.84,857.56c115.51-83.4,233.04-244.94,233.04-244.94"/>
							
								<line style="fill:none;stroke:#2C2454;stroke-linecap:round;stroke-linejoin:round;stroke-miterlimit:10;" x1="1531.88" y1="690.05" x2="1473.84" y2="676.37"/>
							
								<line style="fill:none;stroke:#2C2454;stroke-linecap:round;stroke-linejoin:round;stroke-miterlimit:10;" x1="1509" y1="748.19" x2="1428.49" y2="729.01"/>
							
								<line style="fill:none;stroke:#2C2454;stroke-linecap:round;stroke-linejoin:round;stroke-miterlimit:10;" x1="1355.52" y1="685.54" x2="1379.02" y2="781.1"/>
							
								<line style="fill:none;stroke:#2C2454;stroke-linecap:round;stroke-linejoin:round;stroke-miterlimit:10;" x1="1421.68" y1="838.08" x2="1336.56" y2="820.87"/>
						</g>
					</g>
					<g>
						<path style="fill:#30BDE7;" d="M1530,737.29c0,0-52.1,2.49-70.75,43.96c-18.65,41.47,25.04,55.09,47.4,33.49
							C1534,788.32,1530,737.29,1530,737.29z"/>
						<g>
							<path style="fill:none;stroke:#2C2454;stroke-linecap:round;stroke-linejoin:round;stroke-miterlimit:10;" d="
								M1437.66,857.67c2.78-12.12,12.75-24.86,25.59-38.86c3.73-4.08,7.71-8.27,11.83-12.59c4.55-4.77,9.26-9.69,13.99-14.78
								c2-2.15,4-4.33,5.99-6.54c3.84-4.25,7.64-8.62,11.34-13.12c8.8-10.7,17.01-22.14,23.61-34.49"/>
							
								<line style="fill:none;stroke:#2C2454;stroke-linecap:round;stroke-linejoin:round;stroke-miterlimit:10;" x1="1527.6" y1="771.78" x2="1506.4" y2="771.78"/>
							
								<line style="fill:none;stroke:#2C2454;stroke-linecap:round;stroke-linejoin:round;stroke-miterlimit:10;" x1="1518.57" y1="798.52" x2="1489.07" y2="791.44"/>
							
								<line style="fill:none;stroke:#2C2454;stroke-linecap:round;stroke-linejoin:round;stroke-miterlimit:10;" x1="1482.59" y1="753.58" x2="1495.06" y2="784.9"/>
							
								<line style="fill:none;stroke:#2C2454;stroke-linecap:round;stroke-linejoin:round;stroke-miterlimit:10;" x1="1460.41" y1="778.82" x2="1475.08" y2="806.21"/>
						</g>
					</g>
					<g>
						<path style="fill:#EB5D79;" d="M1343.89,602.39c0,0-66.27,21.99-70.86,80.53c-4.6,58.54,51.89,56.61,68.41,20.05
							C1360.58,660.57,1343.89,602.39,1343.89,602.39z"/>
						<g>
							<path style="fill:none;stroke:#2C2454;stroke-linecap:round;stroke-linejoin:round;stroke-miterlimit:10;" d="
								M1343.89,602.39c-21.51,73.98-82.23,126.54-66.15,255.17"/>
							
								<line style="fill:none;stroke:#2C2454;stroke-linecap:round;stroke-linejoin:round;stroke-miterlimit:10;" x1="1316.58" y1="616.22" x2="1324.19" y2="651.33"/>
							
								<line style="fill:none;stroke:#2C2454;stroke-linecap:round;stroke-linejoin:round;stroke-miterlimit:10;" x1="1349.8" y1="670.26" x2="1316.18" y2="667.64"/>
							
								<line style="fill:none;stroke:#2C2454;stroke-linecap:round;stroke-linejoin:round;stroke-miterlimit:10;" x1="1310.25" y1="679.69" x2="1347.83" y2="682.92"/>
							
								<line style="fill:none;stroke:#2C2454;stroke-linecap:round;stroke-linejoin:round;stroke-miterlimit:10;" x1="1275.06" y1="670.32" x2="1300.43" y2="700.78"/>
						</g>
					</g>
				</g>
				<g>
					<g>
						<path style="fill:#30BDE7;" d="M954.5,525.66c0,0,62.11,31.9,57.67,90.45c-4.44,58.55-59.96,47.98-70.67,9.31
							C929.08,580.59,954.5,525.66,954.5,525.66z"/>
						<path style="fill:#08A4DF;" d="M977.7,657.14c16.31,0.94,32.18-10.83,34.47-41.03c1.59-20.92-5.34-38.41-14.87-52.29
							C992.95,577.78,985.22,606.99,977.7,657.14z"/>
						<g>
							<path style="fill:none;stroke:#2C2454;stroke-linecap:round;stroke-linejoin:round;stroke-miterlimit:10;" d="M954.5,525.66
								c9.9,76.4,61.84,137.66,26.22,262.29"/>
							
								<line style="fill:none;stroke:#2C2454;stroke-linecap:round;stroke-linejoin:round;stroke-miterlimit:10;" x1="979.37" y1="543.52" x2="966.47" y2="577.04"/>
							
								<line style="fill:none;stroke:#2C2454;stroke-linecap:round;stroke-linejoin:round;stroke-miterlimit:10;" x1="938.25" y1="591.82" x2="971.88" y2="594.39"/>
							
								<line style="fill:none;stroke:#2C2454;stroke-linecap:round;stroke-linejoin:round;stroke-miterlimit:10;" x1="975.88" y1="607.21" x2="938.25" y2="604.63"/>
							
								<line style="fill:none;stroke:#2C2454;stroke-linecap:round;stroke-linejoin:round;stroke-miterlimit:10;" x1="1012.1" y1="603.35" x2="982.35" y2="629.56"/>
						</g>
					</g>
					<g>
						<path style="fill:#68BC95;" d="M898.23,857.56c-34-78.4-5.73-138.67-33.18-191.9c-27.44-53.22,7.35-122.65,70.86-77.39
							c75.16,53.56,113.46,191.21,109.37,269.29H898.23z"/>
						<path style="fill:#4AB382;" d="M1045.28,857.56c3.26-62.18-20.37-162.17-68.11-227.35c-4.62,18.76-8.64,39.65-10.71,61.19
							c-6.95,72.43,17.35,141.2,58,116.09l-2.87,50.07H1045.28z"/>
						<g>
							<path style="fill:none;stroke:#2C2454;stroke-linecap:round;stroke-linejoin:round;stroke-miterlimit:10;" d="M873.86,582
								c0,0,108.54,129.49,110.38,275.56"/>
							
								<line style="fill:none;stroke:#2C2454;stroke-linecap:round;stroke-linejoin:round;stroke-miterlimit:10;" x1="956.09" y1="605.45" x2="928.17" y2="664.64"/>
							
								<line style="fill:none;stroke:#2C2454;stroke-linecap:round;stroke-linejoin:round;stroke-miterlimit:10;" x1="969.58" y1="620.39" x2="939.16" y2="685.99"/>
							
								<line style="fill:none;stroke:#2C2454;stroke-linecap:round;stroke-linejoin:round;stroke-miterlimit:10;" x1="875.58" y1="697.45" x2="949.94" y2="709.49"/>
							
								<line style="fill:none;stroke:#2C2454;stroke-linecap:round;stroke-linejoin:round;stroke-miterlimit:10;" x1="881.69" y1="795.48" x2="979.06" y2="804.29"/>
							
								<line style="fill:none;stroke:#2C2454;stroke-linecap:round;stroke-linejoin:round;stroke-miterlimit:10;" x1="1024.46" y1="725.71" x2="969.58" y2="763.91"/>
						</g>
					</g>
					<g>
						<path style="fill:#EB5D79;" d="M827.03,697.45c0,0,68.12,3.25,92.49,57.47c24.38,54.22-32.74,72.02-61.97,43.78
							C821.81,764.16,827.03,697.45,827.03,697.45z"/>
						<g>
							<path style="fill:none;stroke:#2C2454;stroke-linecap:round;stroke-linejoin:round;stroke-miterlimit:10;" d="M827.03,697.45
								c37.35,69.92,114.43,117.75,121.28,160.11"/>
							
								<line style="fill:none;stroke:#2C2454;stroke-linecap:round;stroke-linejoin:round;stroke-miterlimit:10;" x1="830.18" y1="742.54" x2="857.9" y2="742.54"/>
							
								<line style="fill:none;stroke:#2C2454;stroke-linecap:round;stroke-linejoin:round;stroke-miterlimit:10;" x1="841.98" y1="777.5" x2="880.55" y2="768.25"/>
							
								<line style="fill:none;stroke:#2C2454;stroke-linecap:round;stroke-linejoin:round;stroke-miterlimit:10;" x1="889.02" y1="718.75" x2="872.72" y2="759.7"/>
							
								<line style="fill:none;stroke:#2C2454;stroke-linecap:round;stroke-linejoin:round;stroke-miterlimit:10;" x1="918.01" y1="751.74" x2="898.84" y2="787.56"/>
						</g>
					</g>
				</g>
				<g>
					<g>
						<path style="fill:#2C2454;" d="M1102.55,482.46c2.25-30.85,21.56-50.21,50.78-53.3c42.45-4.49,70.07,35.21,66.56,71.93
							c-3.54,36.98-5.95,62.18,5.91,100.76c0,0-109.93,3.95-147.81-9.7c0,0,11.72-13.22,20.79-70.7
							C1099.04,519.84,1102.55,482.46,1102.55,482.46z"/>
						<g>
							<polygon style="fill:#EC6151;" points="1140.6,556.32 1140.6,593.6 1171.65,593.6 1169.19,556.32 							"/>
							<path style="fill:#EA5046;" d="M1170.16,571.06l-0.97-14.74h-28.59v14.31C1147.17,573.25,1158.28,575.91,1170.16,571.06z"/>
						</g>
						<path style="fill:#EC6151;" d="M1102.55,482.46c0,0-11.32,80.31,53.28,83.49c57.58,2.84,52.23-64.61,52.59-79.15
							c0,0-46.72,8.41-71.25-22.05C1137.17,464.75,1127.93,470.95,1102.55,482.46z"/>
						<g>
							<path style="fill:#EA5046;" d="M1177.54,534.8c-6.27-0.6-11.85,4-12.45,10.27c-0.6,6.27,4,11.85,10.27,12.45
								c6.27,0.6,11.85-4,12.45-10.27C1188.41,540.97,1183.81,535.4,1177.54,534.8z"/>
							<path style="fill:#EA5046;" d="M1128.48,541.57c0.6-6.27-4-11.85-10.27-12.45c-3.91-0.37-7.55,1.27-9.88,4.09
								c2.73,6.64,6.54,12.97,11.84,18.26C1124.59,550.24,1128.02,546.41,1128.48,541.57z"/>
						</g>
						<g>
							<path style="fill:#EC6151;" d="M1208.42,486.8c0,0,15.33-15.76,29.71,0.2c13.67,15.17-1.42,53.15-34.86,31.74L1208.42,486.8z
								"/>
							<g>
								<path style="fill:none;stroke:#2C2454;stroke-linecap:round;stroke-linejoin:round;stroke-miterlimit:10;" d="
									M1213.84,495.16c0,0,10.45-10.26,22.01,1.64"/>
								<path style="fill:none;stroke:#2C2454;stroke-linecap:round;stroke-linejoin:round;stroke-miterlimit:10;" d="
									M1220.44,507.68c0,0,7.27-3.95,4.88-16.56"/>
							</g>
						</g>
						<path style="fill:none;stroke:#2C2454;stroke-linecap:round;stroke-linejoin:round;stroke-miterlimit:10;" d="M1136.46,541.2
							c0,0,17.34,5.79,27.14-4.86"/>
					</g>
					<g>
						<g>
							<path style="fill:#EC6151;" d="M1420.85,641.83c0,0-2.66-15.16-1.28-28.52c1.38-13.36-1.08-21.2,4.15-21.35
								c5.22-0.15,7.83,10.75,8.45,16.74c0,0,6.14-13.98,7.68-24.27c1.54-10.29,2-15.95,6.14-15.8c4.15,0.15,6.3,8.12,4.15,21.33
								c0,0,2.43-6.36,4.35-13.9c2.1-8.22,8.69-6.64,8.7,1.18c0.01,7.5-1.33,14.93-1.33,14.93s3.18-6.58,5.22-12.55
								c2.05-5.98,8.7-4.19,7.97,2.02c-0.92,7.79-2.42,15.2-7.54,35.07c0,0,3.25-3.95,5.4-10.5c2.15-6.55,3.9-10.73,7.11-9.93
								c4.46,1.12-0.25,22.73-4.24,33.48c-3.99,10.75-8.7,25.19-8.7,25.19s-24.33,5.62-24.3,5.63
								C1442.83,660.58,1420.85,641.83,1420.85,641.83z"/>
							<g>
								<path style="fill:none;stroke:#2C2454;stroke-linecap:round;stroke-linejoin:round;stroke-miterlimit:10;" d="
									M1439.02,607.73c0,0,23.86,4.3,33.9,12.39"/>
								<path style="fill:none;stroke:#2C2454;stroke-linecap:round;stroke-linejoin:round;stroke-miterlimit:10;" d="
									M1450.13,589.96c0,0-1.56,9.48-4.89,19.1"/>
								<path style="fill:none;stroke:#2C2454;stroke-linecap:round;stroke-linejoin:round;stroke-miterlimit:10;" d="
									M1461.86,592.16c0,0-1.49,9.7-4.15,20.46"/>
								<path style="fill:none;stroke:#2C2454;stroke-linecap:round;stroke-linejoin:round;stroke-miterlimit:10;" d="
									M1432.16,608.7l0.84,4.73c0,0,19.65,4.48,17.13,23.07"/>
								<path style="fill:none;stroke:#2C2454;stroke-linecap:round;stroke-linejoin:round;stroke-miterlimit:10;" d="
									M1419.32,627.48c-0.23-4.44-0.25-9.42,0.24-14.17c1.38-13.36-1.08-21.2,4.15-21.35c5.22-0.15,7.83,10.75,8.45,16.74
									c0,0,6.14-13.98,7.68-24.27c1.54-10.29,2-15.95,6.14-15.8c4.15,0.15,6.3,8.12,4.15,21.33c0,0,2.43-6.36,4.35-13.9
									c2.1-8.22,8.69-6.64,8.7,1.18c0.01,7.5-1.33,14.93-1.33,14.93s3.18-6.58,5.22-12.55c2.05-5.98,8.7-4.19,7.97,2.02
									c-0.92,7.79-2.42,15.2-7.54,35.07c0,0,3.25-3.95,5.4-10.5c2.15-6.55,3.9-10.73,7.11-9.93c4.46,1.12-0.25,22.73-4.24,33.48"
									/>
							</g>
						</g>
						<path style="fill:#FFFFFF;" d="M1418.49,652.48l2.36-10.65l46.24,13.11c0,0-3.38,12.6-3.07,12.7
							C1464.32,667.74,1418.49,652.48,1418.49,652.48z"/>
						<g>
							<g>
								<path style="fill:#FCC45C;" d="M1315.42,716.99c-28.26-28.57-27.65-95.85-54.07-120.43c-10.67-9.92-29.26-13.65-47.64-14.57
									l-61.08,23.46l-61.08-21.7c-5.59,1.74-11.11,4.1-16.36,7.28c-36.55,22.12-40.66,116.84-40.66,116.84v149.68h224.37
									l-6.82-94.32c21.16,30.24,52.25,56.54,95.91,54.52c99.84-4.61,122.15-155.87,122.15-155.87l-53.01-13.91
									C1393.37,746.29,1343.69,745.56,1315.42,716.99z"/>
								<path style="fill:#FAB854;" d="M1357.88,795.48c-55.74,8.3-105.81-32.24-105.81-32.24c21.16,30.24,52.25,56.54,95.91,54.52
									c57.14-2.64,88.88-53.3,105.58-96.16C1437.45,743.78,1399.79,789.24,1357.88,795.48z"/>
								<path style="fill:#FAB854;" d="M1058.29,609.31c-21.01,35.17-23.77,98.57-23.77,98.57v105.03
									c15.27-6.25,33.78-22.04,39.31-61.53C1081.88,693.93,1064.93,630.92,1058.29,609.31z"/>
							</g>
							<path style="fill:#FFFFFF;" d="M1152.63,637.12c46.63,1.73,62.14-38.78,66.43-54.77c-1.78-0.15-3.57-0.26-5.35-0.35
								l-61.08,23.46l-61.08-21.7c-1.88,0.58-3.75,1.25-5.61,1.98C1089.39,597.83,1103.99,635.32,1152.63,637.12z"/>
							<path style="fill:#EC6151;" d="M1091.54,583.75c4.42,12.39,21.08,48.29,65.62,47.53c41.17-0.71,53.18-33.79,56.55-49.29
								c-27.16-1.36-53.86,3.41-53.86,3.41S1124.4,573.56,1091.54,583.75z"/>
						</g>
					</g>
					<g>
						<g>
							<path style="fill:#EA5046;" d="M1021.73,503.79c0,0,0.92-13.77,6.55-22.17c4.24-6.32,11.32-7.28,10.24-0.9
								c-1.08,6.38-5.22,15.16-4.97,23.08H1021.73z"/>
							<path style="fill:#EA5046;" d="M1034.52,496.86c0,0,3.14-13.44,10.05-20.82c5.2-5.55,12.34-5.36,10.25,0.76
								c-2.09,6.12-7.6,14.12-8.63,21.97L1034.52,496.86z"/>
							<path style="fill:#EC6151;" d="M1053.71,570.04c0,0,0.17-6.35,4.47-15.98c4.3-9.63,16.79-19.36,15.57-24.17
								c-1.23-4.81-25.99,5.12-25.99,5.12c-14.31-1.33-20.86-13.55-23.68-28.95c0,0,1.69-14.32-4.66-14.12
								c-6.35,0.2-7.58,30.36-5.53,42.86c2.05,12.49-2.82,22.73-2.82,22.73L1053.71,570.04z"/>
							<polygon style="fill:#FFFFFF;" points="1011.08,557.55 1008.05,565.69 1030.42,578.59 1052.75,578.59 1053.71,570.04 							
								"/>
						</g>
						<path style="fill:#FCC45C;" d="M1004.98,563.39c0,0,52.28,16.28,50.8,15.21c-1.49-1.08,10.07,56.43,5.98,139.99
							c-4.1,83.56-58.46,101.18-75.37,54.89C961.4,705.07,1004.98,563.39,1004.98,563.39z"/>
						<g>
							<path style="fill:#4F65AD;" d="M1141.13,474.23l26.28,4.98c13.29,2.52,22.38,14.98,20.55,28.38c-0.03,0.2-0.06,0.4-0.08,0.6
								c-1.39,9.48-8.11,17.31-17.21,20.32l-25.07,8.29L1141.13,474.23z"/>
							<path style="fill:#2C2454;" d="M1135.98,473.78c-2.52,0-4.98,0.32-7.33,0.91l0-0.01c-7.6,1.81-18.99,5.13-33.52,5.13
								s-25.92-3.33-33.52-5.13l0,0.01c-2.35-0.59-4.8-0.91-7.33-0.91c-17.18,0-31.16,14.49-31.16,32.29s13.98,32.29,31.16,32.29
								c2.52,0,4.98-0.32,7.33-0.91l0,0.01c7.6-1.81,18.99-5.13,33.52-5.13s25.92,3.33,33.52,5.13l0-0.01
								c2.35,0.59,4.8,0.91,7.33,0.91c17.18,0,31.16-14.49,31.16-32.29S1153.16,473.78,1135.98,473.78z"/>
							<g>
								<circle style="fill:#4F65AD;" cx="1055.78" cy="506.08" r="25.36"/>
								<circle style="fill:#EC6151;" cx="1055.78" cy="506.08" r="22.67"/>
								<circle style="fill:#14172A;" cx="1055.78" cy="506.08" r="4.76"/>
							</g>
							<path style="fill:#4F65AD;" d="M1098.14,502.4h-6.01c-2.03,0-3.67,1.64-3.67,3.67l0,0c0,2.03,1.64,3.67,3.67,3.67h6.01
								c2.03,0,3.67-1.64,3.67-3.67l0,0C1101.81,504.05,1100.16,502.4,1098.14,502.4z"/>
							<g>
								<circle style="fill:#4F65AD;" cx="1134.49" cy="506.08" r="25.36"/>
								<circle style="fill:#EC6151;" cx="1134.49" cy="506.08" r="22.67"/>
								<circle style="fill:#14172A;" cx="1134.26" cy="506.08" r="4.76"/>
							</g>
						</g>
						<path style="fill:none;stroke:#2C2454;stroke-linecap:round;stroke-linejoin:round;stroke-miterlimit:10;" d="M1056.17,584.27
							c2,16.39,8.9,66.86,5.59,134.31c-4.1,83.56-58.46,101.18-75.37,54.89c-2.65-7.26-4.53-15.34-5.77-23.98"/>
					</g>
				</g>
			</g>
			<g>
				
					<circle style="fill:none;stroke:#2C2454;stroke-linecap:round;stroke-linejoin:round;stroke-miterlimit:10;" cx="955.88" cy="409.3" r="37.77"/>
				
					<ellipse transform="matrix(0.9871 -0.1604 0.1604 0.9871 -111.2695 133.4064)" style="fill:none;stroke:#2C2454;stroke-linecap:round;stroke-linejoin:round;stroke-miterlimit:10;" cx="770.69" cy="755.91" rx="19.17" ry="19.17"/>
				
					<circle style="fill:none;stroke:#2C2454;stroke-linecap:round;stroke-linejoin:round;stroke-miterlimit:10;" cx="481.02" cy="669.9" r="19.17"/>
				<path style="fill:none;stroke:#2C2454;stroke-linecap:round;stroke-linejoin:round;stroke-miterlimit:10;" d="M1090.4,387.66
					c5.11,0,5.11,5.11,10.21,5.11c5.1,0,5.1-5.11,10.21-5.11c5.11,0,5.11,5.11,10.21,5.11c5.11,0,5.11-5.11,10.22-5.11
					s5.11,5.11,10.22,5.11"/>
				<path style="fill:none;stroke:#2C2454;stroke-linecap:round;stroke-linejoin:round;stroke-miterlimit:10;" d="M700.44,796.76
					c5.11,0,5.11,5.11,10.21,5.11c5.1,0,5.1-5.11,10.21-5.11c5.11,0,5.11,5.11,10.21,5.11c5.11,0,5.11-5.11,10.22-5.11
					c5.11,0,5.11,5.11,10.22,5.11"/>
				<path style="fill:none;stroke:#2C2454;stroke-linecap:round;stroke-linejoin:round;stroke-miterlimit:10;" d="M288.72,528.78
					c5.11,0,5.11,5.11,10.21,5.11c5.1,0,5.1-5.11,10.21-5.11c5.11,0,5.11,5.11,10.21,5.11c5.11,0,5.11-5.11,10.22-5.11
					c5.11,0,5.11,5.11,10.22,5.11"/>
				<polygon style="fill:none;stroke:#2C2454;stroke-linecap:round;stroke-linejoin:round;stroke-miterlimit:10;" points="
					1260.35,302.42 1277.31,302.42 1268.83,318.54 				"/>
				<polygon style="fill:none;stroke:#2C2454;stroke-linecap:round;stroke-linejoin:round;stroke-miterlimit:10;" points="
					1367.37,612.56 1384.33,612.56 1375.85,628.69 				"/>
				<polygon style="fill:none;stroke:#2C2454;stroke-linecap:round;stroke-linejoin:round;stroke-miterlimit:10;" points="
					762.21,639.16 779.17,639.16 770.69,655.28 				"/>
				<polygon style="fill:none;stroke:#2C2454;stroke-linecap:round;stroke-linejoin:round;stroke-miterlimit:10;" points="
					541.45,762.91 558.42,762.91 549.93,779.04 				"/>
			</g>
		</g>
	</g>
</g>
</svg>
