<svg xmlns="http://www.w3.org/2000/svg" viewBox="0 0 133.36 37.46" xml:space="preserve"><path fill="#eb5d79" d="M45.7 21.51h-6.49v3.72h3.41v11.78h4.34V25.23H47zM56.42 37.01h-4.25l-5.45-15.5h4.74l2.74 9.46 2.44-9.46h4.65l2.44 9.46 2.75-9.46h4.74l-5.45 15.5h-4.25l-2.55-9.92-2.55 9.92zM87.28 21.51h4.34v6.51l4.67-6.51h5.09l-5.89 7.51 6.05 7.99h-5.43l-4.5-6.67v6.67h-4.34v-15.5zM101.98 21.51h4.34v11.78h4.65v3.72h-8.99v-15.5zM111.97 21.51h9.3v3.72h-4.96v2.17h4.49v3.41h-4.49v2.48h4.96v3.72h-9.3v-15.5zM131.13 25.85c-.37-.34-.79-.65-1.26-.94-.47-.29-.99-.43-1.55-.43-.32 0-.59.04-.8.13-.21.09-.37.2-.5.33-.12.13-.21.28-.25.43-.04.16-.07.3-.07.43 0 .24.06.43.18.59.12.15.27.28.45.39.18.1.38.18.6.24.22.06.42.11.61.15.58.13 1.15.31 1.72.52.57.22 1.08.51 1.55.9s.84.88 1.13 1.49c.29.6.43 1.37.43 2.28 0 .77-.13 1.47-.4 2.09-.27.63-.65 1.16-1.15 1.61-.5.44-1.12.79-1.84 1.03-.72.25-1.54.36-2.43.36-.5 0-.98-.04-1.44-.13-.46-.09-.92-.23-1.37-.43-.46-.2-.93-.45-1.42-.76-.49-.31-1.01-.69-1.57-1.15l2.06-3.3c.62.59 1.25 1.08 1.9 1.47.65.39 1.3.59 1.95.59.4 0 .75-.1 1.06-.3.31-.2.47-.53.47-1.01 0-.35-.08-.64-.23-.85-.16-.21-.37-.39-.63-.54-.26-.15-.58-.27-.94-.36-.36-.1-.75-.21-1.16-.34-.31-.09-.68-.22-1.1-.4-.42-.18-.82-.43-1.22-.78-.39-.34-.72-.78-.99-1.33-.26-.54-.4-1.24-.4-2.08 0-.62.11-1.22.34-1.78.23-.57.57-1.07 1.02-1.5.45-.43 1.02-.76 1.69-1.02.68-.25 1.48-.37 2.39-.37.61 0 1.16.06 1.67.18.51.11.97.25 1.37.42.4.16.74.33 1.02.51s.5.32.66.42l-1.55 3.24z"/><g fill="#eb5d79"><path d="M71.72 24.62h4.5v12.51h-4.5V24.62zM71.79 21.54c0-.29.05-.56.16-.82.1-.26.25-.48.45-.68.19-.19.42-.34.68-.45.26-.1.53-.16.83-.16s.57.05.83.16.49.26.68.45c.19.19.34.42.45.68.11.26.16.54.16.82 0 .29-.05.57-.16.83s-.26.49-.45.68c-.19.19-.42.34-.68.45-.26.1-.53.16-.83.16s-.57-.06-.83-.16-.49-.26-.68-.45c-.19-.19-.34-.41-.45-.68-.11-.27-.16-.54-.16-.83z"/></g><g fill="#eb5d79"><path d="M51.72 17.44c-.73.49-1.47.81-2.2.96-.73.15-1.44.23-2.13.23-1.19 0-2.29-.2-3.29-.61-1-.4-1.87-.97-2.6-1.71-.74-.73-1.3-1.62-1.71-2.67-.41-1.05-.61-2.21-.61-3.5 0-1.35.22-2.54.65-3.59.44-1.05 1.03-1.93 1.78-2.66.75-.73 1.62-1.28 2.6-1.66.99-.38 2.02-.57 3.11-.57.72 0 1.46.1 2.23.3.76.2 1.49.52 2.18.99V7.6c-.22-.24-.45-.48-.71-.71-.26-.23-.55-.43-.86-.62-.31-.18-.66-.33-1.03-.44-.37-.11-.78-.16-1.2-.16-.63 0-1.19.11-1.7.34-.5.23-.93.55-1.28.96-.35.41-.63.9-.82 1.47-.2.56-.3 1.18-.3 1.83 0 .61.09 1.18.28 1.71.18.53.45.99.82 1.38.36.39.79.7 1.29.92.5.22 1.08.33 1.72.33.84 0 1.58-.18 2.22-.55.64-.37 1.17-.77 1.58-1.19v4.57zM52.72 2.11h6.65c.89 0 1.64.1 2.27.31.63.2 1.15.47 1.56.78.41.31.74.66.96 1.04.23.38.4.76.52 1.11.11.36.18.68.21.96.02.28.03.48.03.61 0 .77-.1 1.42-.31 1.96s-.48 1.01-.8 1.39c-.33.38-.69.69-1.09.92-.4.23-.79.41-1.17.55l4.5 6.42h-5.44l-3.39-5.3v5.3h-4.5V2.11zm5.59 7.23c.8 0 1.35-.19 1.65-.57.3-.38.46-.81.46-1.28 0-.23-.03-.45-.1-.66-.07-.21-.18-.41-.34-.59-.16-.17-.38-.31-.65-.42-.28-.11-.61-.16-1.01-.16h-1.1v3.69h1.09zM81.01 2.11h5.46l5.71 16.06h-4.82l-.9-2.77H81l-.89 2.77H75.3l5.71-16.06zm.9 9.75h3.67l-1.83-5.91-1.84 5.91zM93.18 5.97h-3.53V2.11h11.56v3.85h-3.53v12.2h-4.5V5.97zM122.98 2.11h9.63v3.85h-5.14v2.25h4.66v3.53h-4.66v2.57h5.14v3.85h-9.63V2.11zM101.94 5.43h4.5v12.74h-4.5V5.43zM102.02 2.11c0-.29.05-.57.16-.83s.25-.48.45-.68c.19-.19.41-.34.68-.45.26-.11.53-.16.83-.16.29 0 .56.05.82.16.26.11.48.26.68.45.19.19.34.42.44.68.11.26.16.53.16.83 0 .29-.05.57-.16.83-.1.26-.25.48-.44.68-.19.19-.42.34-.68.45-.26.11-.53.16-.82.16-.29 0-.57-.05-.83-.16-.26-.1-.48-.26-.68-.45-.19-.19-.34-.41-.45-.67-.11-.27-.16-.55-.16-.84z"/></g><g><path fill="#eb5d79" d="M122 2.11h-3.11l-3.26 10.6-3.32-10.6h-5.3l6.35 16.06h4.33L122 6.83z"/></g><g><path fill="#eb5d79" d="m86.3 28.82-4.52-7.31h-4.57v15.5h4.19v-9.3l4.9 7.96z"/></g><g><path fill="#eb5d79" d="M75.51 14.62v-.3h-5.13v-2.57h4.65V8.22h-4.65V5.97h5.13V2.11h-9.63v16.06h8.37z"/></g><g fill="#eb5d79"><path d="M36.8 28.04c-.13-1.55-.28-3.31-.17-4.16.02-.12.04-.33.04-.6.03-.81-.2-1.3-.33-1.55-.14-.25-.29-.32-.48-.46s-.46-.19-.68-.2c-.22-.01-.43.05-.63.18s-.78.5-.96 1.34c-.05.24-.08.48-.09.74-.01.36.06.54.13.87.04.19.05.5.06.81.02.97.12 2.1.21 3.27.13 1.6.29 3.42.16 4.19-.05.29-.39 1.76-2.29 1.84-2.7.12-8.69.08-14.49.04-2.88-.02-5.86-.04-8.37-.04h-.2c-2.16 0-3.7-.46-4.57-1.36-.63-.65-.93-1.57-.9-2.73.02-.71.06-1.54.1-2.48.11-2.53.26-5.99.27-9.7.01-3.64-.24-6.35-.45-8.52-.14-1.42-.25-2.55-.24-3.51.01-1.21.27-2.07.75-2.51.38-.35 1.01-.5 1.86-.43 6.47.53 15.47.39 15.85.38 1.72-.02 3.33-.1 4.74-.18 3.48-.18 6.23-.32 7.26.64.15.14.62.57.66 2.11.03.97-.06 3.06-.15 4.83 0 0-.01.02-.01.04-.04.54-.02 1.12-.14 1.44-.12.32-.21.66-.26 1.03-.05.37-.05.72-.01 1.06.04.34.12.5.23.76.11.26.26.47.44.63.18.16.38.25.6.28.22.03.43-.01.65-.12.21-.11.5-.31.68-.54.2-.25.4-.66.47-1.05.01-.04.02-.09.03-.14.04-.15.12-.84.13-1.02l.01-.19c.1-1.81.3-5.57.26-7.08-.05-1.86-.57-3.23-1.6-4.18C33.44-.02 30.31.14 25.98.36c-1.39.07-2.96.15-4.64.17-.09 0-9.24.15-15.57-.36C4.08.03 2.71.43 1.7 1.35.59 2.36.02 3.92 0 5.98-.01 7.09.11 8.35.24 9.8c.2 2.11.44 4.74.44 8.24-.01 3.66-.15 6.95-.27 9.59-.04.95-.08 1.8-.1 2.51-.06 1.95.53 3.63 1.72 4.86 1.45 1.49 3.69 2.25 6.67 2.25 2.54-.01 5.59.02 8.54.04 2.92.02 5.89.04 8.48.04 2.58 0 4.77-.02 6.15-.08 3.01-.13 4.7-2.24 5.04-4.28.2-1.15.05-2.99-.11-4.93z"/><path d="M29.04 23.86c-.01-.11-.03-.36-.02-.43.2-.78-.26-1.58-1.04-1.78-.78-.21-1.58.26-1.79 1.04-.16.62-.08 1.37-.04 1.61.04.25.06.48.07.69.01.03.01.07.01.12-.01.55.22 1.5-1.04 1.66-1.04.14-6.9.74-11.17 0-.5-.05-.91-.12-1.25-.19-1.85-.15-1.67-1.22-1.56-2.27.08-.7.11-1.63.13-2.57-.1-.71-.7-1.26-1.44-1.26-.8 0-1.46.65-1.46 1.46 0 1.31-.03 1.61-.09 2.26-.02.18-.03.38-.06.64-.35 4.27 3.99 4.69 5.62 4.86 1.29.12 3 .2 4.81.2 2.13 0 4.41-.1 6.37-.35l.04-.01c.81-.1 2.98-.38 3.73-2.39.45-1.22.27-2.73.18-3.29z"/><path d="M29.45 14.11c-.02-.2-.08-.39-.18-.58-.05-.09-.11-.17-.17-.26-.01-.12-.02-.37.05-.88.16-1.04-.11-1.99-.75-2.68-.8-.87-2.07-1.25-3.79-1.13-1.5.1-2.38.82-2.84 1.4-1.1 1.38-1.33 3.55-.76 7.24.04.24.09.48.14.71.15.56.21.82.29 1.11.08.29.29.69.06.96l-.01.01c-.23.28-.55.44-2.69.44-1.23 0-1.88-.2-2.24-.41-.15-.08-.25-.17-.32-.27-.07-.09-.08-.16-.08-.16-.11-.3 0-.65.1-.87.08-.2.15-.53.22-.88.03-.19.06-.38.1-.56.59-3.47.94-5.56-.19-7-.58-.74-1.48-1.15-2.67-1.23-2-.13-3.54-.02-4.52.96-1.13 1.13-1.02 2.84-.89 4.82.05.8.76 1.42 1.55 1.36.81-.05 1.41-.75 1.36-1.55 0-.04 0-.09-.01-.13l.01.01s-.24-1.9.48-2.37c.36-.23.8-.31 1.28-.11.95.34 1.12 1.31.44 6.5-.15 1.12-.06 2.3.71 3.22 1 1.19 2.66 1.45 5.2 1.49h.27c1.37 0 3.16-.18 4.14-1.39 1-1.23.65-2.8.36-4.06-.08-.36-.16-.7-.21-1.03-.04-.28-.08-.55-.11-.81-.04-.96-.02-1.72.03-2.32.03-.18.22-1.51.7-1.85.44-.31.94-.33 1.33-.09.38.22.28 1.03.33 1.48.01.54.1.99.29 1.39.09.19.22.36.37.49.03.03.06.07.1.1.17.15.35.27.55.35.2.08.4.12.6.12.2 0 .39-.03.57-.11.18-.07.34-.18.47-.33.13-.15.23-.31.29-.5.04-.21.06-.4.04-.6z"/></g></svg>
