<svg xmlns="http://www.w3.org/2000/svg" viewBox="0 0 228.36 377.35" xml:space="preserve"><linearGradient id="a" gradientUnits="userSpaceOnUse" x1="61.5295" y1="345.4828" x2="167.0043" y2="345.4828"><stop offset="0" stop-color="#d6edf6"/><stop offset=".1385" stop-color="#d2ebf6"/><stop offset=".2814" stop-color="#c7e7f6"/><stop offset=".4259" stop-color="#b2dff7"/><stop offset=".4304" stop-color="#b1dff7"/><stop offset=".7307" stop-color="#58c3e5"/><stop offset=".7784" stop-color="#63c5e6"/><stop offset=".842" stop-color="#7dcdea"/><stop offset=".9147" stop-color="#9ed8ef"/><stop offset=".9935" stop-color="#c6e7f6"/><stop offset="1" stop-color="#c9e8f7"/></linearGradient><path d="M167 345.48c0 6.98-23.61 12.64-52.74 12.64s-52.74-5.66-52.74-12.64 23.61-12.64 52.74-12.64S167 338.5 167 345.48z" fill="url(#a)"/><radialGradient id="b" cx="-599.5885" cy="3258.9873" r="19.6143" fx="-599.6151" fy="3251.5186" gradientTransform="matrix(5.8214 0 0 1.4187 3604.6348 -4273.9385)" gradientUnits="userSpaceOnUse"><stop offset=".4678" stop-color="#719eae"/><stop offset=".468" stop-color="#719eae"/><stop offset=".4861" stop-color="#9bb9c6"/><stop offset=".504" stop-color="#bacfd9"/><stop offset=".5212" stop-color="#cfe0e7"/><stop offset=".5376" stop-color="#dceaf0"/><stop offset=".5521" stop-color="#e0eef3"/><stop offset=".566" stop-color="#e2eff3"/><stop offset=".7092" stop-color="#f2f8fa"/><stop offset=".8536" stop-color="#fcfdfe"/><stop offset="1" stop-color="#fff"/></radialGradient><path d="M228.36 349.52c0 15.37-51.12 27.83-114.18 27.83S0 364.89 0 349.52c0-15.37 51.12-27.83 114.18-27.83s114.18 12.46 114.18 27.83z" fill="url(#b)"/><path d="M168.82 341.61c0 6.81-24.43 12.33-54.56 12.33s-54.56-5.52-54.56-12.33c0-6.81 24.43-12.33 54.56-12.33s54.56 5.52 54.56 12.33z" fill="#fff"/><path fill="#fff" d="M59.71 254.18h109.11v87.43H59.71z"/><linearGradient id="c" gradientUnits="userSpaceOnUse" x1="114.8432" y1="241.6156" x2="113.6912" y2="266.7372"><stop offset=".00348513" stop-color="#d8eefb"/><stop offset=".1527" stop-color="#d3ecfa"/><stop offset=".5728" stop-color="#c8e8f6"/><stop offset=".9991" stop-color="#c5e6f4"/></linearGradient><path d="M168.82 254.18c0 6.81-24.43 12.33-54.56 12.33s-54.56-5.52-54.56-12.33c0-6.81 24.43-12.33 54.56-12.33s54.56 5.52 54.56 12.33z" fill="url(#c)"/><path d="M160.79 253.74c0 5.57-20.83 10.08-46.52 10.08-25.69 0-46.52-4.51-46.52-10.08s20.83-10.08 46.52-10.08c25.69 0 46.52 4.51 46.52 10.08z" fill="#6b98a8"/><ellipse cx="114.27" cy="252.68" rx="31.7" ry="5.81" fill="#e2620f"/><linearGradient id="d" gradientUnits="userSpaceOnUse" x1="82.757" y1="19.6812" x2="167.1859" y2="239.626"><stop offset="0" stop-color="#42b69f"/><stop offset="1" stop-color="#6fbb7a"/></linearGradient><path d="M73.94 211.78c2.42-56.22 23.61-65.73 28.18-111.66 2.86-28.71-2.39-60.49 6.37-79.38 12.79-27.56 53.62-29.46 64.1 5.3 6.32 20.97-8.57 53.83-18.96 77.76-16.62 38.29 13.24 90.51.72 126.99-12.52 36.5-82.86 37.79-80.41-19.01z" fill="url(#d)"/><linearGradient id="e" gradientUnits="userSpaceOnUse" x1="92.4359" y1="38.8113" x2="161.6615" y2="219.1502"><stop offset="0" stop-color="#31ab57"/><stop offset=".1457" stop-color="#1ea850"/><stop offset="1" stop-color="#5bb24e"/></linearGradient><path d="M113.9 237.23c-5.59 6.11-4.28-37.52 1.52-68.8 5.87-31.65 17.73-72.81 19.66-103 1.94-30.2-.88-44.59 4.7-44.59 5.57 0 7.48 13.81 1.79 52.76-5.69 38.95-13.5 71.95-18.53 97.84-4.6 23.68-1.19 57.1-9.14 65.79z" fill="url(#e)"/><g><linearGradient id="f" gradientUnits="userSpaceOnUse" x1="113.9002" y1="113.74" x2="178.2647" y2="281.415" gradientTransform="matrix(.7394 .4248 -.3345 .9424 123.9755 -82.9898)"><stop offset="0" stop-color="#42b69f"/><stop offset="1" stop-color="#6fbb7a"/></linearGradient><path d="M116.18 207.74c15.7-39.61 30.07-39.58 44.37-71.1 8.93-19.7 14.08-44.23 23.84-54.96 14.24-15.66 37.74-3.8 34.78 24.57-1.78 17.11-18.56 35.9-30.52 49.73-19.14 22.13-15.62 69.31-31.98 91.47-16.37 22.15-56.35.3-40.49-39.71z" fill="url(#f)"/><linearGradient id="g" gradientUnits="userSpaceOnUse" x1="120.9919" y1="128.4328" x2="173.7731" y2="265.9324" gradientTransform="matrix(.7394 .4248 -.3345 .9424 123.9755 -82.9898)"><stop offset="0" stop-color="#31ab57"/><stop offset=".1457" stop-color="#1ea850"/><stop offset="1" stop-color="#5bb24e"/></linearGradient><path d="M132.22 238.96c-4.71 2.58 2.26-25.51 13.21-45.95 10.56-19.7 33.75-49.55 42.54-70.62 8.79-21.07 10.88-32.32 14.02-30.52 3.14 1.81.7 12.35-12.44 38.48-13.14 26.14-29.27 51.47-38.36 69.48-8.94 17.75-12.27 35.47-18.97 39.13z" fill="url(#g)"/></g><g><linearGradient id="h" gradientUnits="userSpaceOnUse" x1="285.3278" y1="47.5147" x2="348.1719" y2="211.2293" gradientTransform="matrix(-1.0643 .2585 .0567 .9984 409.7276 -51.9388)"><stop offset="0" stop-color="#42b69f"/><stop offset="1" stop-color="#6fbb7a"/></linearGradient><path d="M124.02 213.71c-4.4-42.32-22-45.38-27.7-79.44-3.56-21.28-.67-46.51-8.6-59.16-11.57-18.46-44.78-11.86-51.78 16.67-4.22 17.2 9.28 39.28 18.75 55.45 15.14 25.87 1.32 66.55 13.06 91.85 11.73 25.31 60.71 17.38 56.27-25.37z" fill="url(#h)"/><linearGradient id="i" gradientUnits="userSpaceOnUse" x1="291.5636" y1="62.5602" x2="343.1674" y2="196.9926" gradientTransform="matrix(-1.0643 .2585 .0567 .9984 409.7276 -51.9388)"><stop offset="0" stop-color="#31ab57"/><stop offset=".1457" stop-color="#1ea850"/><stop offset="1" stop-color="#5bb24e"/></linearGradient><path d="M96.21 237.94c7.16-1.8 4.64-30.45.3-47.08-5.88-22.51-22.86-54.3-27.68-76.56-4.36-20.13-1.96-34.05-6.49-32.95-4.52 1.1-6.21 14.1.81 36.27 5.31 16.77 25.75 58.07 29.18 75.4 3.43 17.33-3.28 46.73 3.88 44.92z" fill="url(#i)"/></g></svg>
